<?xml version="1.0" standalone="no"?>
<!DOCTYPE svg PUBLIC "-//W3C//DTD SVG 20010904//EN"
 "http://www.w3.org/TR/2001/REC-SVG-20010904/DTD/svg10.dtd">
<svg version="1.0" xmlns="http://www.w3.org/2000/svg"
 width="348.000000pt" height="348.000000pt" viewBox="0 0 348.000000 348.000000"
 preserveAspectRatio="xMidYMid meet">

<g transform="translate(0.000000,348.000000) scale(0.100000,-0.100000)"
fill="#000000" stroke="none">
<path d="M990 3119 c-410 -147 -749 -269 -753 -271 -4 -2 43 -459 105 -1016
l112 -1012 366 -207 c201 -114 490 -277 642 -364 l278 -158 637 361 c351 198
641 363 644 367 7 7 232 2021 227 2027 -3 3 -1460 526 -1498 537 -8 3 -350
-116 -760 -264z m1340 -1319 c199 -437 364 -801 367 -807 4 -10 -35 -13 -174
-13 l-178 0 -64 168 c-35 92 -77 201 -93 243 l-29 76 -209 7 c-116 3 -304 3
-419 0 l-209 -7 -93 -244 -93 -243 -179 0 c-139 0 -178 3 -174 13 3 6 114 251
247 542 133 292 343 753 467 1025 124 272 230 503 235 514 8 15 30 -27 123
-230 62 -137 276 -607 475 -1044z"/>
<path d="M1594 2087 l-142 -332 144 -3 c79 -1 209 -1 288 0 l144 3 -141 333
c-78 182 -144 332 -147 332 -3 0 -69 -150 -146 -333z"/>
</g>
</svg>
